<?xml version="1.0" encoding="UTF-8"?>

<svg version="1.2" baseProfile="tiny" width="215.9mm" height="279.4mm" viewBox="0 0 21590 27940" preserveAspectRatio="xMidYMid" fill-rule="evenodd" stroke-width="28.222" stroke-linejoin="round" xmlns="http://www.w3.org/2000/svg" xmlns:xlink="http://www.w3.org/1999/xlink" xml:space="preserve">
 <g visibility="visible" id="MasterSlide_1_Default">
  <desc>Master slide
  </desc>
  <rect fill="none" stroke="none" x="0" y="0" width="21590" height="27940"/>
 </g>
 <g visibility="visible" id="Slide_1_page1">
  <g>
   <path fill="rgb(255,255,153)" stroke="none" d="M 9698,10144 C 10238,10144 10651,10529 10651,11033 10651,11537 10238,11922 9698,11922 9158,11922 8746,11537 8746,11033 8746,10529 9158,10144 9698,10144 Z"/>
   <path fill="none" stroke="rgb(51,51,51)" id="Drawing_1_0" stroke-linejoin="round" d="M 9698,10144 C 10238,10144 10651,10529 10651,11033 10651,11537 10238,11922 9698,11922 9158,11922 8746,11537 8746,11033 8746,10529 9158,10144 9698,10144 Z"/>
   <path fill="rgb(204,204,122)" stroke="none" d="M 9389,10666 C 9447,10666 9491,10707 9491,10761 9491,10815 9447,10856 9389,10856 9331,10856 9287,10815 9287,10761 9287,10707 9331,10666 9389,10666 Z"/>
   <path fill="none" stroke="rgb(51,51,51)" id="Drawing_1_1" stroke-linejoin="round" d="M 9389,10666 C 9447,10666 9491,10707 9491,10761 9491,10815 9447,10856 9389,10856 9331,10856 9287,10815 9287,10761 9287,10707 9331,10666 9389,10666 Z"/>
   <path fill="rgb(204,204,122)" stroke="none" d="M 10006,10666 C 10064,10666 10108,10707 10108,10761 10108,10815 10064,10856 10006,10856 9948,10856 9904,10815 9904,10761 9904,10707 9948,10666 10006,10666 Z"/>
   <path fill="none" stroke="rgb(51,51,51)" id="Drawing_1_2" stroke-linejoin="round" d="M 10006,10666 C 10064,10666 10108,10707 10108,10761 10108,10815 10064,10856 10006,10856 9948,10856 9904,10815 9904,10761 9904,10707 9948,10666 10006,10666 Z"/>
   <path fill="none" stroke="rgb(51,51,51)" id="Drawing_1_3" stroke-linejoin="round" d="M 9175,11421 C 9511,11586 9886,11586 10222,11421"/>
   <rect fill="none" stroke="none" x="8747" y="10144" width="1906" height="1779"/>
  </g>
  <g>
   <path fill="none" stroke="rgb(0,0,0)" id="Drawing_2_0" stroke-linejoin="round" d="M 10525,10525 L 15986,5445"/>
  </g>
  <g>
   <path fill="none" stroke="rgb(0,0,0)" id="Drawing_3_0" stroke-linejoin="round" d="M 8874,10525 L 3413,5445"/>
  </g>
  <g>
   <path fill="rgb(153,255,204)" stroke="none" d="M 9700,5953 C 8542,5953 7559,5932 6556,5885 5554,5838 4834,5780 4255,5699 3677,5618 3413,5539 3413,5445 3413,5351 3677,5272 4255,5191 4834,5110 5554,5052 6556,5005 7559,4958 8542,4937 9699,4937 10857,4937 11840,4958 12843,5005 13845,5052 14565,5110 15144,5191 15722,5272 15986,5351 15986,5445 15986,5539 15722,5618 15144,5699 14565,5780 13845,5838 12843,5885 11840,5932 10857,5953 9700,5953 L 9700,5953 Z"/>
   <path fill="none" stroke="rgb(128,128,128)" id="Drawing_4_0" stroke-linejoin="round" d="M 9700,5953 C 8542,5953 7559,5932 6556,5885 5554,5838 4834,5780 4255,5699 3677,5618 3413,5539 3413,5445 3413,5351 3677,5272 4255,5191 4834,5110 5554,5052 6556,5005 7559,4958 8542,4937 9699,4937 10857,4937 11840,4958 12843,5005 13845,5052 14565,5110 15144,5191 15722,5272 15986,5351 15986,5445 15986,5539 15722,5618 15144,5699 14565,5780 13845,5838 12843,5885 11840,5932 10857,5953 9700,5953 L 9700,5953 Z"/>
  </g>
 </g>
</svg>